<?xml version="1.0" encoding="UTF-8"?>
<svg width="27px" height="27px" viewBox="0 0 27 27" version="1.1" xmlns="http://www.w3.org/2000/svg" xmlns:xlink="http://www.w3.org/1999/xlink">
    <!-- Generator: Sketch 47.1 (45422) - http://www.bohemiancoding.com/sketch -->
    <title>Shape</title>
    <desc>Created with Sketch.</desc>
    <defs></defs>
    <g id="Page-1" stroke="none" stroke-width="1" fill="none" fill-rule="evenodd">
        <g id="iPhone-7-Copy-10" transform="translate(-166.000000, -221.000000)" fill-rule="nonzero" fill="#FFFFFF">
            <g id="新消息标识">
                <g id="Group-7" transform="translate(30.000000, 84.000000)">
                    <g id="Group-6" transform="translate(136.000000, 11.000000)">
                        <g id="Group-8" transform="translate(0.000000, 120.000000)">
                            <g id="volume" transform="translate(0.000000, 6.000000)">
                                <path d="M13.49964,0 C6.04413,0 9e-05,6.04449 9e-05,13.49973 C9e-05,20.95497 6.04413,27 13.49964,27 C20.95515,27 26.99991,20.95533 26.99991,13.49973 C26.99991,6.04413 20.95515,0 13.49964,0 Z M13.43727,18.36396 L13.43709,18.36396 L13.43709,18.36387 C13.43709,18.67149 13.26159,18.95211 12.9852,19.08657 C12.8736,19.14075 12.75318,19.16784 12.63339,19.16784 C12.4569,19.16784 12.28212,19.10952 12.13785,18.99675 L9.50184,16.9317 C9.37998,16.96185 9.25281,16.98003 9.12069,16.98003 L6.47919,16.98003 C5.61276,16.98003 4.9104,16.2774 4.9104,15.41142 L4.9104,10.83609 C4.9104,9.96984 5.61276,9.2673 6.47919,9.2673 L9.12087,9.2673 C9.2745,9.2673 9.42219,9.29043 9.56295,9.33129 L12.13803,7.31313 C12.37959,7.12359 12.70899,7.08885 12.98538,7.22322 C13.26177,7.35768 13.43727,7.63803 13.43727,7.94565 L13.43727,18.36396 Z M16.07544,15.06249 L15.19452,14.18157 C15.39756,13.90401 15.51924,13.56327 15.51924,13.19346 C15.51924,12.78522 15.37245,12.41055 15.12945,12.11922 L16.00362,11.24505 C16.46955,11.7621 16.7562,12.44412 16.7562,13.19346 C16.75593,13.90428 16.49979,14.55597 16.07544,15.06249 Z M17.21763,16.20486 C17.93259,15.40377 18.36792,14.3487 18.36792,13.19346 C18.36792,11.9997 17.90298,10.9134 17.14527,10.1034 L18.01971,9.22896 C19.00098,10.26351 19.60488,11.65869 19.60488,13.19337 C19.60488,14.68962 19.03158,16.05465 18.09351,17.08029 L17.21763,16.20486 Z M20.19465,19.1556 L19.32048,18.28116 C20.56185,16.94502 21.32298,15.15681 21.32298,13.19328 C21.32298,11.19141 20.53125,9.37242 19.24641,8.02791 L20.12085,7.15374 C21.62943,8.72235 22.55967,10.85049 22.55967,13.19328 C22.55976,15.49809 21.65967,17.59518 20.19465,19.1556 Z" id="Shape"></path>
                            </g>
                        </g>
                    </g>
                </g>
            </g>
        </g>
    </g>
</svg>