<?xml version="1.0" encoding="UTF-8"?>
<svg width="27px" height="27px" viewBox="0 0 27 27" version="1.1" xmlns="http://www.w3.org/2000/svg" xmlns:xlink="http://www.w3.org/1999/xlink">
    <!-- Generator: Sketch 47.1 (45422) - http://www.bohemiancoding.com/sketch -->
    <title>Combined Shape</title>
    <desc>Created with Sketch.</desc>
    <defs></defs>
    <g id="Page-1" stroke="none" stroke-width="1" fill="none" fill-rule="evenodd">
        <g id="iPhone-7-Copy-12" transform="translate(-166.000000, -221.000000)" fill-rule="nonzero" fill="#FFFFFF">
            <g id="新消息标识">
                <g id="Group-7" transform="translate(30.000000, 84.000000)">
                    <g id="Group-6" transform="translate(136.000000, 11.000000)">
                        <g id="e" transform="translate(0.000000, 126.000000)">
                            <path d="M13.49973,0 C20.95551,0 26.99946,6.04404 26.99946,13.49973 C26.99946,20.95542 20.95542,26.99946 13.49973,26.99946 C6.04404,26.99946 0,20.95542 0,13.49973 C0,6.04404 6.04404,0 13.49973,0 Z M7.89759,16.24104 L16.3008,16.24104 L16.3008,17.1747 L7.89759,17.1747 L7.89759,16.24104 Z M7.89759,14.16996 L16.3008,14.16996 L16.3008,15.10362 L7.89759,15.10362 L7.89759,14.16996 Z M7.89759,12.09897 L16.3008,12.09897 L16.3008,13.03263 L7.89759,13.03263 L7.89759,12.09897 Z M7.89759,18.43128 L16.3008,18.43128 L16.3008,19.36494 L7.89759,19.36494 L7.89759,18.43128 Z M7.89759,10.02762 L16.3008,10.02762 L16.3008,10.96128 L7.89759,10.96128 L7.89759,10.02762 Z M18.14769,19.07577 L18.14769,19.07577 L18.14769,10.25892 C18.14769,10.25892 18.14769,8.61894 18.1476,8.61894 C18.14787,7.71273 17.41374,6.97842 16.5078,6.97842 L7.69077,6.97842 C6.78465,6.97842 6.05052,7.71273 6.05052,8.61867 L6.05052,20.71602 C6.05052,21.62196 6.78483,22.35627 7.69077,22.35627 L16.50789,22.35627 C17.41338,22.35627 18.14769,21.62196 18.14769,20.71602 L18.14769,19.07577 Z M20.24874,16.9749 L20.24874,8.15796 L20.24847,8.15796 L20.24847,6.51789 C20.24874,5.61195 19.51443,4.87737 18.60894,4.87737 L9.79191,4.87737 C9.05031,4.87737 8.42472,5.36949 8.22141,6.04476 L16.50789,6.04476 C17.92683,6.04476 19.08135,7.19946 19.08135,8.61867 L19.08135,10.25865 L19.08135,19.07568 L19.08135,20.18493 C19.75671,19.9818 20.24874,19.35576 20.24874,18.61443 L20.24874,16.9749 Z" id="Combined-Shape"></path>
                        </g>
                    </g>
                </g>
            </g>
        </g>
    </g>
</svg>