<?xml version="1.0" encoding="UTF-8"?>
<svg width="27px" height="27px" viewBox="0 0 27 27" version="1.1" xmlns="http://www.w3.org/2000/svg" xmlns:xlink="http://www.w3.org/1999/xlink">
    <!-- Generator: Sketch 47.1 (45422) - http://www.bohemiancoding.com/sketch -->
    <title>Combined Shape</title>
    <desc>Created with Sketch.</desc>
    <defs></defs>
    <g id="Page-1" stroke="none" stroke-width="1" fill="none" fill-rule="evenodd">
        <g id="iPhone-7-Copy-11" transform="translate(-168.000000, -221.000000)" fill-rule="nonzero" fill="#FFFFFF">
            <g id="新消息标识">
                <g id="Group-7" transform="translate(30.000000, 84.000000)">
                    <g id="Group-6" transform="translate(136.000000, 11.000000)">
                        <g id="Group-8" transform="translate(2.000000, 120.000000)">
                            <g id="film" transform="translate(0.000000, 6.000000)">
                                <path d="M13.49964,0 C6.04413,0 9e-05,6.04449 9e-05,13.49973 C9e-05,20.95497 6.04413,27 13.49964,27 C20.95515,27 26.99991,20.95533 26.99991,13.49973 C26.99991,6.04413 20.95515,0 13.49964,0 Z M20.42514,20.16189 C20.42505,20.93526 19.79784,21.56247 19.02447,21.56247 L7.97598,21.56247 C7.20261,21.56247 6.5754,20.93526 6.5754,20.16189 L6.5754,6.77907 C6.5754,6.0057 7.20261,5.37849 7.97598,5.37849 L19.02456,5.37849 C19.79793,5.37849 20.42514,6.0057 20.42514,6.77907 L20.42514,20.16189 L20.42514,20.16189 Z M16.49349,14.535 L10.50669,14.535 C10.15398,14.535 9.8685,14.82093 9.8685,15.17319 L9.8685,18.88767 C9.8685,19.24038 10.15425,19.52586 10.50669,19.52586 L16.49349,19.52586 C16.8462,19.52586 17.13168,19.24011 17.13168,18.88767 L17.13168,15.17319 C17.13195,14.82066 16.8462,14.535 16.49349,14.535 Z M7.62975,10.16388 L7.62975,11.56446 L8.83584,11.56446 L8.83584,10.16388 L7.62975,10.16388 Z M7.62975,7.52814 L7.62975,8.92872 L8.83584,8.92872 L8.83584,7.52814 L7.62975,7.52814 Z M7.62975,18.07137 L7.62975,19.47195 L8.83584,19.47195 L8.83584,18.07137 L7.62975,18.07137 Z M7.62975,15.43554 L7.62975,16.83612 L8.83584,16.83612 L8.83584,15.43554 L7.62975,15.43554 Z M7.62975,12.79971 L7.62975,14.20029 L8.83584,14.20029 L8.83584,12.79971 L7.62975,12.79971 Z M16.49349,7.41564 L10.50669,7.41564 C10.15398,7.41564 9.8685,7.70157 9.8685,8.05383 L9.8685,11.76831 C9.8685,12.12102 10.15425,12.4065 10.50669,12.4065 L16.49349,12.4065 C16.8462,12.4065 17.13168,12.12075 17.13168,11.76831 L17.13168,8.05374 C17.13195,7.7013 16.8462,7.41564 16.49349,7.41564 Z M18.1728,7.52814 L18.1728,8.92872 L19.37889,8.92872 L19.37889,7.52814 L18.1728,7.52814 Z M18.1728,18.07137 L18.1728,19.47195 L19.37889,19.47195 L19.37889,18.07137 L18.1728,18.07137 Z M18.1728,10.16388 L18.1728,11.56446 L19.37889,11.56446 L19.37889,10.16388 L18.1728,10.16388 Z M18.1728,15.43554 L18.1728,16.83612 L19.37889,16.83612 L19.37889,15.43554 L18.1728,15.43554 Z M18.1728,12.79971 L18.1728,14.20029 L19.37889,14.20029 L19.37889,12.79971 L18.1728,12.79971 Z" id="Combined-Shape"></path>
                            </g>
                        </g>
                    </g>
                </g>
            </g>
        </g>
    </g>
</svg>